<?xml version="1.0" encoding="utf-8"?>
<!-- Generator: Adobe Illustrator 12.0.0, SVG Export Plug-In . SVG Version: 6.00 Build 51448)  -->
<!DOCTYPE svg PUBLIC "-//W3C//DTD SVG 1.1//EN" "http://www.w3.org/Graphics/SVG/1.1/DTD/svg11.dtd" [
	<!ENTITY ns_svg "http://www.w3.org/2000/svg">
	<!ENTITY ns_xlink "http://www.w3.org/1999/xlink">
]>
<svg  version="1.1" id="Layer_1" xmlns="&ns_svg;" xmlns:xlink="&ns_xlink;" width="285.221" height="296.457"
	 viewBox="0 0 285.221 296.457" overflow="visible" enable-background="new 0 0 285.221 296.457" xml:space="preserve">
<path fill="#FFFFFF" stroke="#010101" d="M285.221,10.92"/>
<path fill="#C9A32E" d="M276.83,268.418c-5.218-7.892-67.311-103.304-121.789-256.052c-0.092-0.296-0.207-0.583-0.313-0.873
	c-0.017-0.05-0.036-0.102-0.054-0.149h-0.001C152.374,5.238,146.807,0.746,140.098,0c-6.708,0.746-12.275,5.238-14.575,11.343
	h-0.002c-0.02,0.05-0.037,0.103-0.056,0.149c-0.106,0.29-0.223,0.576-0.311,0.873C70.677,165.114,8.583,260.526,3.365,268.418
	C1.257,271.329,0,274.898,0,278.769c0,9.767,7.92,17.688,17.69,17.688h244.814c9.77,0,17.689-7.923,17.689-17.688
	C280.194,274.898,278.94,271.329,276.83,268.418z"/>
<path fill="#FFFFFF" d="M265.161,263.264c-4.76-7.195-61.402-94.23-111.094-233.561c-0.082-0.272-0.188-0.532-0.286-0.799
	c-0.015-0.045-0.03-0.091-0.048-0.136h-0.002c-2.098-5.569-7.177-9.667-13.294-10.348c-6.119,0.68-11.196,4.778-13.294,10.348
	h-0.002c-0.015,0.045-0.031,0.09-0.048,0.136c-0.098,0.267-0.204,0.525-0.286,0.799C77.114,169.033,20.473,256.066,15.714,263.264
	c-1.923,2.656-3.07,5.915-3.07,9.441c0,8.907,7.226,16.136,16.137,16.136h223.314c8.912,0,16.135-7.228,16.135-16.136
	C268.23,269.177,267.083,265.92,265.161,263.264z"/>
<path fill="#292866" d="M261.991,261.949c-4.642-7.015-59.839-91.832-108.269-227.622c-0.081-0.264-0.186-0.516-0.277-0.773
	c-0.017-0.048-0.031-0.092-0.049-0.136h-0.001c-2.043-5.425-6.991-9.421-12.959-10.084c-5.961,0.663-10.912,4.658-12.957,10.084
	h-0.002c-0.016,0.044-0.033,0.088-0.049,0.136c-0.094,0.257-0.197,0.511-0.277,0.773C78.725,170.115,23.524,254.935,18.887,261.949
	c-1.875,2.589-2.992,5.761-2.992,9.201c0,8.684,7.041,15.725,15.727,15.725h217.633c8.686,0,15.726-7.041,15.726-15.725
	C264.981,267.71,263.861,264.538,261.991,261.949z"/>
<path fill="#292866" d="M261.991,261.949c-4.642-7.015-59.839-91.832-108.269-227.622c-0.081-0.264-0.186-0.516-0.277-0.773
	c-0.017-0.048-0.031-0.092-0.049-0.136h-0.001c-2.043-5.425-6.991-9.421-12.959-10.084c-5.961,0.663-10.912,4.658-12.957,10.084
	h-0.002c-0.016,0.044-0.033,0.088-0.049,0.136c-0.094,0.257-0.197,0.511-0.277,0.773C78.725,170.115,23.524,254.935,18.887,261.949
	c-1.875,2.589-2.992,5.761-2.992,9.201c0,8.684,7.041,15.725,15.727,15.725h217.633c8.686,0,15.726-7.041,15.726-15.725
	C264.981,267.71,263.861,264.538,261.991,261.949z"/>
<path fill="#4296D2" d="M264.981,271.15c0-2.45-0.575-4.761-1.579-6.826l-122.963-95.656L17.475,264.324
	c-1.003,2.067-1.58,4.375-1.58,6.826c0,8.684,7.041,15.725,15.727,15.725h217.633C257.941,286.875,264.981,279.834,264.981,271.15z"
	/>
<path fill="#FFFFFF" d="M44.998,262.464c0.127,0.909,0.38,1.59,0.755,2.04c0.688,0.82,1.864,1.23,3.531,1.23
	c0.999,0,1.81-0.107,2.432-0.324c1.182-0.413,1.773-1.183,1.773-2.311c0-0.656-0.289-1.165-0.867-1.525
	c-0.579-0.347-1.495-0.661-2.754-0.93l-2.148-0.47c-2.112-0.469-3.563-0.974-4.355-1.521c-1.338-0.919-2.008-2.35-2.008-4.295
	c0-1.78,0.655-3.256,1.965-4.43c1.31-1.176,3.233-1.765,5.771-1.765c2.118,0,3.926,0.552,5.422,1.661
	c1.496,1.109,2.28,2.724,2.354,4.832h-3.992c-0.074-1.193-0.608-2.041-1.602-2.543c-0.664-0.332-1.487-0.498-2.472-0.498
	c-1.096,0-1.97,0.215-2.624,0.646c-0.653,0.43-0.981,1.031-0.981,1.802c0,0.71,0.323,1.238,0.966,1.586
	c0.415,0.232,1.293,0.509,2.638,0.821l3.484,0.821c1.526,0.355,2.671,0.839,3.435,1.44c1.186,0.935,1.778,2.285,1.778,4.056
	c0,1.813-0.702,3.32-2.104,4.52c-1.402,1.2-3.383,1.798-5.942,1.798c-2.615,0-4.67-0.591-6.168-1.773
	c-1.498-1.183-2.246-2.807-2.246-4.875h3.959V262.464z"/>
<path fill="#FFFFFF" d="M71.659,260.009c-1.162,0.971-2.822,1.453-4.979,1.453h-4.135v7.144H58.43v-19.87h8.521
	c1.965,0,3.532,0.512,4.699,1.534c1.167,1.023,1.752,2.612,1.752,4.761C73.402,257.381,72.821,259.038,71.659,260.009z
	 M68.499,252.851c-0.526-0.439-1.263-0.66-2.21-0.66h-3.743v5.851h3.743c0.947,0,1.684-0.238,2.21-0.717
	c0.526-0.475,0.789-1.231,0.789-2.266C69.287,254.025,69.024,253.291,68.499,252.851z"/>
<path fill="#FFFFFF" d="M78.337,248.736h4.687l7.023,19.87h-4.5l-1.31-4.084h-7.314l-1.347,4.084h-4.333L78.337,248.736z
	 M78.053,261.097h5.085l-2.507-7.815L78.053,261.097z"/>
<path fill="#FFFFFF" d="M92.396,250.819c1.599-1.632,3.634-2.449,6.105-2.449c3.306,0,5.723,1.092,7.25,3.284
	c0.844,1.229,1.298,2.464,1.36,3.702h-4.147c-0.264-0.949-0.603-1.663-1.017-2.149c-0.741-0.86-1.837-1.29-3.291-1.29
	c-1.48,0-2.646,0.608-3.5,1.826c-0.855,1.218-1.282,2.94-1.282,5.168c0,2.229,0.45,3.898,1.351,5.008
	c0.901,1.109,2.047,1.665,3.437,1.665c1.424,0,2.51-0.477,3.258-1.429c0.413-0.512,0.757-1.279,1.029-2.303h4.116
	c-0.356,2.163-1.264,3.921-2.725,5.276c-1.461,1.354-3.333,2.029-5.617,2.029c-2.825,0-5.045-0.916-6.662-2.748
	c-1.617-1.842-2.425-4.363-2.425-7.573C89.636,255.37,90.556,252.697,92.396,250.819z"/>
<path fill="#FFFFFF" d="M123.039,252.268h-10.507v4.207h9.646v3.455h-9.646v5.098h10.995v3.581h-15.049v-19.854h14.562V252.268z"/>
<path fill="#FFFFFF" d="M133.279,262.464c0.128,0.909,0.382,1.59,0.758,2.04c0.685,0.82,1.864,1.23,3.53,1.23
	c1,0,1.812-0.107,2.434-0.324c1.182-0.413,1.773-1.183,1.773-2.311c0-0.656-0.288-1.165-0.868-1.525
	c-0.578-0.347-1.495-0.661-2.752-0.93l-2.15-0.47c-2.111-0.469-3.564-0.974-4.357-1.521c-1.336-0.919-2.008-2.35-2.008-4.295
	c0-1.78,0.654-3.256,1.965-4.43c1.309-1.176,3.232-1.765,5.77-1.765c2.117,0,3.927,0.552,5.424,1.661
	c1.496,1.109,2.279,2.724,2.355,4.832h-3.992c-0.073-1.193-0.606-2.041-1.601-2.543c-0.664-0.332-1.487-0.498-2.472-0.498
	c-1.096,0-1.971,0.215-2.624,0.646c-0.654,0.43-0.98,1.031-0.98,1.802c0,0.71,0.322,1.238,0.963,1.586
	c0.415,0.232,1.292,0.509,2.639,0.821l3.484,0.821c1.528,0.355,2.671,0.839,3.436,1.44c1.185,0.935,1.777,2.285,1.777,4.056
	c0,1.813-0.702,3.32-2.104,4.52c-1.405,1.2-3.384,1.798-5.943,1.798c-2.614,0-4.672-0.591-6.169-1.773
	c-1.497-1.183-2.246-2.807-2.246-4.875h3.96v0.004h-0.004V262.464z"/>
<path fill="#FFFFFF" d="M146.591,268.605v-19.87h4.115v7.567h7.739v-7.568h4.115v19.871h-4.115v-8.875h-7.739v8.875H146.591z"/>
<path fill="#FFFFFF" d="M164.478,248.736h4.224v12.198c0,1.367,0.161,2.361,0.481,2.989c0.501,1.116,1.589,1.67,3.271,1.67
	c1.67,0,2.759-0.554,3.256-1.67c0.322-0.628,0.483-1.622,0.483-2.989v-12.198h4.223v12.21c0,2.108-0.328,3.753-0.982,4.933
	c-1.219,2.157-3.545,3.234-6.982,3.234c-3.437,0-5.763-1.077-6.991-3.234c-0.654-1.177-0.983-2.821-0.983-4.933L164.478,248.736
	L164.478,248.736z"/>
<path fill="#FFFFFF" d="M196.771,248.736v3.514h-5.943v16.356h-4.177V252.25h-5.973v-3.514H196.771L196.771,248.736z"/>
<path fill="#FFFFFF" d="M206.726,248.736v3.514h-5.942v16.356h-4.177V252.25h-5.974v-3.514H206.726L206.726,248.736z"/>
<path fill="#FFFFFF" d="M207.078,248.736h4.146v16.29h9.92v3.58H207.08L207.078,248.736L207.078,248.736z"/>
<path fill="#FFFFFF" d="M236.549,252.268h-10.508v4.207h9.646v3.455h-9.646v5.098h10.995v3.581h-15.048v-19.854h14.562v3.515
	L236.549,252.268L236.549,252.268z"/>
<path fill="#FFFFFF" stroke="#8D9299" d="M126.651,107.24c0-12.195-6.491-15.309-6.491-15.309s-6.486,3.113-6.486,15.309
	s0,88.999,0,88.999h12.977C126.651,196.237,126.651,119.436,126.651,107.24z M126.334,204.335h-12.961c0,0,0,11.766-2.594,19.027
	h18.15C126.334,216.1,126.334,204.335,126.334,204.335z"/>
<path fill="#8D9299" stroke="#8D9299" d="M124.686,196.237h1.965c0,0,0-76.802,0-88.998s-6.491-15.308-6.491-15.308
	s-0.394,0.191-0.983,0.653c1.813,1.424,5.508,5.451,5.508,14.655C124.686,119.436,124.686,196.237,124.686,196.237z
	 M126.334,204.335h-1.965c0,0,0,11.766,2.596,19.027h1.965C126.334,216.1,126.334,204.335,126.334,204.335z"/>
<path fill="#FFFFFF" stroke="#8D9299" d="M167.648,107.24c0-12.195-6.489-15.309-6.489-15.309s-6.486,3.113-6.486,15.309
	s0,88.999,0,88.999h12.974C167.648,196.237,167.648,119.436,167.648,107.24z M167.945,204.335h-12.959c0,0,0,11.766-2.594,19.027
	h18.149C167.945,216.1,167.945,204.335,167.945,204.335z"/>
<path fill="#8D9299" stroke="#8D9299" d="M167.646,107.24c0-12.195-6.488-15.309-6.488-15.309s-0.394,0.191-0.982,0.654
	c1.812,1.424,5.505,5.451,5.505,14.655c0,12.195,0,88.999,0,88.999h-11.008l0,0h12.974
	C167.646,196.237,167.646,119.436,167.646,107.24z M167.945,204.335h-1.965c0,0,0,11.766,2.596,19.027h1.966
	C167.945,216.1,167.945,204.335,167.945,204.335z"/>
<path fill="#FFFFFF" stroke="#8D9299" d="M140.662,52.492c0,0-14.01,10.38-14.01,51.894c0,41.516,0,90.814,0,90.814h28.022
	c0,0,0-49.3,0-90.814C154.672,62.871,140.662,52.492,140.662,52.492z"/>
<path fill="#8D9299" stroke="#8D9299" d="M140.66,52.492c0,0-0.369,0.277-0.983,0.906c3.183,3.266,13.03,16.179,13.03,50.988
	c0,41.515,0,90.814,0,90.814h1.966c0,0,0-49.3,0-90.814C154.672,62.871,140.66,52.492,140.66,52.492z"/>
<path fill="#FFFFFF" stroke="#8D9299" d="M125.737,223.362h-11.765c0,0-1.167,2.162-1.167,5.58h14.101
	C126.907,225.524,125.737,223.362,125.737,223.362z"/>
<path fill="#FFFFFF" stroke="#8D9299" d="M155.584,223.362h11.763c0,0,1.168,2.162,1.168,5.58h-14.097
	C154.418,225.524,155.584,223.362,155.584,223.362z"/>
<path fill="#FFFFFF" stroke="#8D9299" d="M105.456,195.945l-0.599,8.996c0,0,20.746,5.039,24.234,6.427h11.568v-73.461h-8.078
	C132.582,137.907,133.043,161.061,105.456,195.945z M175.866,195.945c-27.586-34.885-27.125-58.038-27.125-58.038h-8.079v73.461
	h11.567c3.49-1.388,24.232-6.427,24.232-6.427L175.866,195.945z"/>
<path fill="#FFFFFF" stroke="#8D9299" d="M140.658,108.369c0.002,0-8.076,4.5-8.076,29.538c0,25.038,0,58.038,0,58.038
	s-3.254,8.14-3.333,22.453c0.02,0.275,0.244,0.497,0.524,0.497c0.014,0,0.025-0.006,0.037-0.006v0.006h10.849v-1.885h0.004v1.886
	h10.849v-0.006c0.014,0,0.023,0.006,0.037,0.006c0.28,0,0.505-0.222,0.523-0.497c-0.074-14.313-3.33-22.453-3.33-22.453
	s0-33,0-58.038c0-25.039-8.079-29.538-8.079-29.538"/>
<path fill="#8D9299" stroke="#8D9299" d="M140.658,110.292v-1.923c0,0-0.382,0.214-0.981,0.804
	C139.961,109.453,140.295,109.824,140.658,110.292z M149.545,218.895h0.036c-0.014,0-0.023-0.006-0.036-0.006V218.895z
	 M148.741,195.945c0,0,0-33,0-58.038c0-25.04-8.079-29.539-8.079-29.539v1.928c2.392,3.084,6.113,10.611,6.113,27.611
	c0,25.038,0,58.038,0,58.038s3.256,8.14,3.331,22.453c-0.02,0.275-0.243,0.497-0.522,0.497h1.929v-0.006
	c0.014,0,0.022,0.006,0.037,0.006c0.279,0,0.504-0.222,0.522-0.497C151.997,204.085,148.741,195.945,148.741,195.945z"/>
<path fill="#FFFFFF" stroke="#8D9299" d="M132.277,222.47h8.38v-3.575h-6.991C133.667,218.895,132.277,220.28,132.277,222.47z
	 M147.655,218.895h-6.991v3.575h8.38C149.043,220.28,147.655,218.895,147.655,218.895z"/>
<path fill="#8D9299" stroke="#8D9299" d="M147.655,218.895h-1.965c0,0,1.388,1.386,1.388,3.575h1.966
	C149.043,220.28,147.655,218.895,147.655,218.895z"/>
<path fill="#FFFFFF" stroke="#8D9299" d="M140.66,195.945c0,0-6.487,5.662,0,33.229v-1.973l0.004,0.055v1.918
	c6.487-27.567,0-33.229,0-33.229l0,0"/>
<path fill="#8D9299" stroke="#8D9299" d="M139.67,197.389c0.317,0.626,0.667,1.49,0.98,2.646v-4.101
	C140.651,195.936,140.208,196.328,139.67,197.389z M140.655,195.936v4.116c0.91,3.372,1.493,9.247,0,19.079v10.035
	C147.142,201.598,140.655,195.936,140.655,195.936z M140.651,229.165v-10.011c-0.262,1.718-0.584,3.551-0.98,5.518
	C139.959,226.104,140.282,227.594,140.651,229.165z"/>
<path fill="#8D9299" d="M146.275,124.52c0,0-6.019-2.334-9.705,0.184c-3.686,2.518-1.597,2.396,0,1.965
	c1.597-0.43,9.152-0.553,9.766,0.43"/>
</svg>
